<?xml version="1.0" encoding="utf-8"?><svg width="100%" height="100%" version="1.1" viewBox="-2882.99951171875 -3131.37329101563 16518.0004882813 17910.74609375" style="background-color:transparent" xmlns:xlink="http://www.w3.org/1999/xlink" xmlns="http://www.w3.org/2000/svg"><defs /><g id="layer1"><path d="M9984.00024414063 2175.99975585938 C5792.87585240191 2175.99975585938 2505.32778098353 5338.51687698052 2312.90739324892 9471.99975585938 L4622.01008604923 9471.99975585938 C4820.31247281945 6763.06220552649 7098.70497518369 4607.99975585938 9856.00024414063 4607.99975585938 C12613.2955130976 4607.99975585938 14891.6880154618 6763.06220552649 15089.990402232 9471.99975585938 L17655.0930950323 9471.99975585938 C17462.6727072977 5338.51687698052 14175.1246358793 2175.99975585938 9984.00024414063 2175.99975585938 Z " opacity="1" stroke="#000000" stroke-opacity="1" stroke-width="1" stroke-linecap="butt" stroke-linejoin="miter" stroke-dasharray="none" fill="#FFFFFF" fill-opacity="1" transform="rotate(90 9984.00073242188 5823.99975585938)" /><path d="M-7544.37276759534 1536 C-7350.99696457022 6389.71421854917 -3503.25359392094 10112 1408 10112 C6319.25359392094 10112 10166.9969645702 6389.71421854916 10360.3727675953 1536 L6521.7861153372 1536 C6387.11439667478 4304.73435609751 4080.58671432655 6528 1280 6528 C-1520.58671432655 6528 -3827.11439667478 4304.73435609751 -3961.7861153372 1536 Z " opacity="1" stroke="#000000" stroke-opacity="1" stroke-width="1" stroke-linecap="butt" stroke-linejoin="miter" stroke-dasharray="none" fill="#FFFFFF" fill-opacity="1" transform="rotate(90 1408.00048828125 5824)" /><ellipse cx="5952.00024414063" cy="5696" rx="4480" ry="4480" opacity="1" stroke="#000000" stroke-opacity="1" stroke-width="1" stroke-linecap="butt" stroke-linejoin="miter" stroke-dasharray="none" fill="#FFFFFF" fill-opacity="1" transform="rotate(90 5952.00024414063 5696)" /></g></svg>
