<?xml version="1.0"?>
<svg version="1.1" xmlns="http://www.w3.org/2000/svg" xmlns:xlink="http://www.w3.org/1999/xlink" width="640" height="480">
    <desc iVinci="yes" version="4.4" gridStep="20" showGrid="no" snapToGrid="no" codePlatform="0"/>
    <g id="Layer1">
        <g id="Shape1">
            <desc type="0" basicInfo-basicType="5" basicInfo-roundedRectRadius="12" basicInfo-polygonSides="6" basicInfo-starPoints="5" bounding="rect(-103,-74.0454,206,148.091)" text="" font-familyName="Helvetica" font-pixelSize="20" font-bold="0" font-underline="0" font-alignment="1" strokeStyle="0" markerStart="0" markerEnd="0" shadowEnabled="0" shadowOffsetX="0" shadowOffsetY="2" shadowBlur="4" shadowOpacity="160" blurEnabled="0" blurRadius="4" transform="matrix(1,0,0,1,290.5,243)" pers-center="0,0" pers-size="0,0" pers-start="0,0" pers-end="0,0" locked="0" mesh="" flag=""/>
            <path id="shapePath1" d="M393.5,243 L342,317.045 L239,317.045 L187.5,242.999 L239.001,168.954 L342.001,168.955 L393.5,243 Z" style="stroke:#323232;stroke-opacity:1;stroke-width:0;stroke-linejoin:miter;stroke-miterlimit:2;stroke-linecap:round;fill-rule:evenodd;fill:#4fa8ff;fill-opacity:0.784314;"/>
        </g>
        <g id="Shape2">
            <desc type="0" basicInfo-basicType="5" basicInfo-roundedRectRadius="12" basicInfo-polygonSides="6" basicInfo-starPoints="5" bounding="rect(-78.5,-54.1268,157,108.254)" text="" font-familyName="Helvetica" font-pixelSize="20" font-bold="0" font-underline="0" font-alignment="1" strokeStyle="0" markerStart="0" markerEnd="0" shadowEnabled="0" shadowOffsetX="0" shadowOffsetY="2" shadowBlur="4" shadowOpacity="160" blurEnabled="0" blurRadius="4" transform="matrix(1,0,0,1,253,205)" pers-center="0,0" pers-size="0,0" pers-start="0,0" pers-end="0,0" locked="0" mesh="" flag=""/>
            <path id="shapePath2" d="M331.5,205 L292.25,259.127 L213.75,259.126 L174.5,205 L213.751,150.873 L292.251,150.874 L331.5,205 Z" style="stroke:#323232;stroke-opacity:1;stroke-width:0;stroke-linejoin:miter;stroke-miterlimit:2;stroke-linecap:round;fill-rule:evenodd;fill:#ff715a;fill-opacity:0.784314;"/>
        </g>
        <g id="Shape3">
            <desc type="0" basicInfo-basicType="5" basicInfo-roundedRectRadius="12" basicInfo-polygonSides="6" basicInfo-starPoints="5" bounding="rect(-59,-40.7033,118,81.4067)" text="" font-familyName="Helvetica" font-pixelSize="20" font-bold="0" font-underline="0" font-alignment="1" strokeStyle="0" markerStart="0" markerEnd="0" shadowEnabled="0" shadowOffsetX="0" shadowOffsetY="2" shadowBlur="4" shadowOpacity="160" blurEnabled="0" blurRadius="4" transform="matrix(1,0,0,1,306.5,251.5)" pers-center="0,0" pers-size="0,0" pers-start="0,0" pers-end="0,0" locked="0" mesh="" flag=""/>
            <path id="shapePath3" d="M365.5,251.5 L336,292.203 L277,292.203 L247.5,251.5 L277,210.797 L336.001,210.797 L365.5,251.5 Z" style="stroke:#323232;stroke-opacity:1;stroke-width:0;stroke-linejoin:miter;stroke-miterlimit:2;stroke-linecap:round;fill-rule:evenodd;fill:#73ffa4;fill-opacity:0.784314;"/>
        </g>
        <g id="Shape4">
            <desc type="0" basicInfo-basicType="5" basicInfo-roundedRectRadius="12" basicInfo-polygonSides="6" basicInfo-starPoints="5" bounding="rect(-79,-31.61,158,63.2201)" text="" font-familyName="Helvetica" font-pixelSize="20" font-bold="0" font-underline="0" font-alignment="1" strokeStyle="0" markerStart="0" markerEnd="0" shadowEnabled="0" shadowOffsetX="0" shadowOffsetY="2" shadowBlur="4" shadowOpacity="160" blurEnabled="0" blurRadius="4" transform="matrix(1,0,0,1,172.5,249)" pers-center="0,0" pers-size="0,0" pers-start="0,0" pers-end="0,0" locked="0" mesh="" flag=""/>
            <path id="shapePath4" d="M251.5,249 L212,280.61 L133,280.61 L93.5,249 L133.001,217.39 L212.001,217.39 L251.5,249 Z" style="stroke:#323232;stroke-opacity:1;stroke-width:0;stroke-linejoin:miter;stroke-miterlimit:2;stroke-linecap:round;fill-rule:evenodd;fill:#ffe35f;fill-opacity:0.784314;"/>
        </g>
        <g id="Shape5">
            <desc type="0" basicInfo-basicType="5" basicInfo-roundedRectRadius="12" basicInfo-polygonSides="6" basicInfo-starPoints="5" bounding="rect(-31,-15.1555,62,30.311)" text="" font-familyName="Helvetica" font-pixelSize="20" font-bold="0" font-underline="0" font-alignment="1" strokeStyle="0" markerStart="0" markerEnd="0" shadowEnabled="0" shadowOffsetX="0" shadowOffsetY="2" shadowBlur="4" shadowOpacity="160" blurEnabled="0" blurRadius="4" transform="matrix(1,0,0,1,85.5,275)" pers-center="0,0" pers-size="0,0" pers-start="0,0" pers-end="0,0" locked="0" mesh="" flag=""/>
            <path id="shapePath5" d="M116.5,275 L101,290.155 L69.9999,290.155 L54.5,275 L70.0003,259.844 L101,259.845 L116.5,275 Z" style="stroke:#323232;stroke-opacity:1;stroke-width:0;stroke-linejoin:miter;stroke-miterlimit:2;stroke-linecap:round;fill-rule:evenodd;fill:#ffe35f;fill-opacity:0.784314;"/>
        </g>
        <g id="Shape6">
            <desc type="0" basicInfo-basicType="5" basicInfo-roundedRectRadius="12" basicInfo-polygonSides="6" basicInfo-starPoints="5" bounding="rect(-61.5,-62.354,123,124.708)" text="" font-familyName="Helvetica" font-pixelSize="20" font-bold="0" font-underline="0" font-alignment="1" strokeStyle="0" markerStart="0" markerEnd="0" shadowEnabled="0" shadowOffsetX="0" shadowOffsetY="2" shadowBlur="4" shadowOpacity="160" blurEnabled="0" blurRadius="4" transform="matrix(1,0,0,1,384,219.5)" pers-center="0,0" pers-size="0,0" pers-start="0,0" pers-end="0,0" locked="0" mesh="" flag=""/>
            <path id="shapePath6" d="M445.5,219.5 L414.75,281.854 L353.25,281.854 L322.5,219.499 L353.251,157.146 L414.751,157.147 L445.5,219.5 Z" style="stroke:#323232;stroke-opacity:1;stroke-width:0;stroke-linejoin:miter;stroke-miterlimit:2;stroke-linecap:round;fill-rule:evenodd;fill:#71c0ff;fill-opacity:0.784314;"/>
        </g>
        <g id="Shape7">
            <desc type="0" basicInfo-basicType="5" basicInfo-roundedRectRadius="12" basicInfo-polygonSides="6" basicInfo-starPoints="5" bounding="rect(-58,-46.3325,116,92.665)" text="" font-familyName="Helvetica" font-pixelSize="20" font-bold="0" font-underline="0" font-alignment="1" strokeStyle="0" markerStart="0" markerEnd="0" shadowEnabled="0" shadowOffsetX="0" shadowOffsetY="2" shadowBlur="4" shadowOpacity="160" blurEnabled="0" blurRadius="4" transform="matrix(1,0,0,1,352.5,175)" pers-center="0,0" pers-size="0,0" pers-start="0,0" pers-end="0,0" locked="0" mesh="" flag=""/>
            <path id="shapePath7" d="M410.5,175 L381.5,221.332 L323.5,221.332 L294.5,175 L323.5,128.667 L381.501,128.668 L410.5,175 Z" style="stroke:#323232;stroke-opacity:1;stroke-width:0;stroke-linejoin:miter;stroke-miterlimit:2;stroke-linecap:round;fill-rule:evenodd;fill:#da35ff;fill-opacity:0.784314;"/>
        </g>
        <g id="Shape8">
            <desc type="0" basicInfo-basicType="5" basicInfo-roundedRectRadius="12" basicInfo-polygonSides="6" basicInfo-starPoints="5" bounding="rect(-33.5,-24.6818,67,49.3636)" text="" font-familyName="Helvetica" font-pixelSize="20" font-bold="0" font-underline="0" font-alignment="1" strokeStyle="0" markerStart="0" markerEnd="0" shadowEnabled="0" shadowOffsetX="0" shadowOffsetY="2" shadowBlur="4" shadowOpacity="160" blurEnabled="0" blurRadius="4" transform="matrix(1,0,0,1,290,212)" pers-center="0,0" pers-size="0,0" pers-start="0,0" pers-end="0,0" locked="0" mesh="" flag=""/>
            <path id="shapePath8" d="M323.5,212 L306.75,236.682 L273.25,236.682 L256.5,212 L273.25,187.318 L306.75,187.318 L323.5,212 Z" style="stroke:#323232;stroke-opacity:1;stroke-width:0;stroke-linejoin:miter;stroke-miterlimit:2;stroke-linecap:round;fill-rule:evenodd;fill:#da35ff;fill-opacity:0.784314;"/>
        </g>
        <g id="Shape9">
            <desc type="0" basicInfo-basicType="5" basicInfo-roundedRectRadius="12" basicInfo-polygonSides="6" basicInfo-starPoints="5" bounding="rect(-14,-13.4234,28,26.8469)" text="" font-familyName="Helvetica" font-pixelSize="20" font-bold="0" font-underline="0" font-alignment="1" strokeStyle="0" markerStart="0" markerEnd="0" shadowEnabled="0" shadowOffsetX="0" shadowOffsetY="2" shadowBlur="4" shadowOpacity="160" blurEnabled="0" blurRadius="4" transform="matrix(1,0,0,1,304.5,242)" pers-center="0,0" pers-size="0,0" pers-start="0,0" pers-end="0,0" locked="0" mesh="" flag=""/>
            <path id="shapePath9" d="M318.5,242 L311.5,255.423 L297.5,255.423 L290.5,242 L297.5,228.577 L311.5,228.577 L318.5,242 Z" style="stroke:#323232;stroke-opacity:1;stroke-width:0;stroke-linejoin:miter;stroke-miterlimit:2;stroke-linecap:round;fill-rule:evenodd;fill:#da35ff;fill-opacity:0.784314;"/>
        </g>
        <g id="Shape10">
            <desc type="0" basicInfo-basicType="5" basicInfo-roundedRectRadius="12" basicInfo-polygonSides="6" basicInfo-starPoints="5" bounding="rect(-41,-28.1459,82,56.2919)" text="" font-familyName="Helvetica" font-pixelSize="20" font-bold="0" font-underline="0" font-alignment="1" strokeStyle="0" markerStart="0" markerEnd="0" shadowEnabled="0" shadowOffsetX="0" shadowOffsetY="2" shadowBlur="4" shadowOpacity="160" blurEnabled="0" blurRadius="4" transform="matrix(1,0,0,1,311.5,145)" pers-center="0,0" pers-size="0,0" pers-start="0,0" pers-end="0,0" locked="0" mesh="" flag=""/>
            <path id="shapePath10" d="M352.5,145 L332,173.146 L291,173.146 L270.5,145 L291,116.854 L332,116.854 L352.5,145 Z" style="stroke:#323232;stroke-opacity:1;stroke-width:0;stroke-linejoin:miter;stroke-miterlimit:2;stroke-linecap:round;fill-rule:evenodd;fill:#46e3ff;fill-opacity:0.784314;"/>
        </g>
        <g id="Shape11">
            <desc type="0" basicInfo-basicType="2" basicInfo-roundedRectRadius="12" basicInfo-polygonSides="6" basicInfo-starPoints="5" bounding="rect(-37.5,-41.5,75,83)" text="" font-familyName="Helvetica" font-pixelSize="20" font-bold="0" font-underline="0" font-alignment="1" strokeStyle="0" markerStart="0" markerEnd="0" shadowEnabled="0" shadowOffsetX="0" shadowOffsetY="2" shadowBlur="4" shadowOpacity="160" blurEnabled="0" blurRadius="4" transform="matrix(1,0,0,1,265,172)" pers-center="0,0" pers-size="0,0" pers-start="0,0" pers-end="0,0" locked="0" mesh="" flag=""/>
            <path id="shapePath11" d="M227.5,142.5 C227.5,135.873 232.873,130.5 239.5,130.5 L290.5,130.5 C297.127,130.5 302.5,135.873 302.5,142.5 L302.5,201.5 C302.5,208.127 297.127,213.5 290.5,213.5 L239.5,213.5 C232.873,213.5 227.5,208.127 227.5,201.5 L227.5,142.5 Z" style="stroke:#323232;stroke-opacity:1;stroke-width:0;stroke-linejoin:miter;stroke-miterlimit:2;stroke-linecap:round;fill-rule:evenodd;fill:#ff7a76;fill-opacity:0.784314;"/>
        </g>
        <g id="Shape12">
            <desc type="0" basicInfo-basicType="2" basicInfo-roundedRectRadius="12" basicInfo-polygonSides="6" basicInfo-starPoints="5" bounding="rect(-44,-48,88,96)" text="" font-familyName="Helvetica" font-pixelSize="20" font-bold="0" font-underline="0" font-alignment="1" strokeStyle="0" markerStart="0" markerEnd="0" shadowEnabled="0" shadowOffsetX="0" shadowOffsetY="2" shadowBlur="4" shadowOpacity="160" blurEnabled="0" blurRadius="4" transform="matrix(1,0,0,1,348.5,259.5)" pers-center="0,0" pers-size="0,0" pers-start="0,0" pers-end="0,0" locked="0" mesh="" flag=""/>
            <path id="shapePath12" d="M304.5,223.5 C304.5,216.873 309.873,211.5 316.5,211.5 L380.5,211.5 C387.127,211.5 392.5,216.873 392.5,223.5 L392.5,295.5 C392.5,302.127 387.127,307.5 380.5,307.5 L316.5,307.5 C309.873,307.5 304.5,302.127 304.5,295.5 L304.5,223.5 Z" style="stroke:#323232;stroke-opacity:1;stroke-width:0;stroke-linejoin:miter;stroke-miterlimit:2;stroke-linecap:round;fill-rule:evenodd;fill:#2773ff;fill-opacity:0.784314;"/>
        </g>
        <g id="Shape13">
            <desc type="0" basicInfo-basicType="2" basicInfo-roundedRectRadius="12" basicInfo-polygonSides="6" basicInfo-starPoints="5" bounding="rect(-25,-24.5,50,49)" text="" font-familyName="Helvetica" font-pixelSize="20" font-bold="0" font-underline="0" font-alignment="1" strokeStyle="0" markerStart="0" markerEnd="0" shadowEnabled="0" shadowOffsetX="0" shadowOffsetY="2" shadowBlur="4" shadowOpacity="160" blurEnabled="0" blurRadius="4" transform="matrix(1,0,0,1,155.5,208)" pers-center="0,0" pers-size="0,0" pers-start="0,0" pers-end="0,0" locked="0" mesh="" flag=""/>
            <path id="shapePath13" d="M130.5,195.5 C130.5,188.873 135.873,183.5 142.5,183.5 L168.5,183.5 C175.127,183.5 180.5,188.873 180.5,195.5 L180.5,220.5 C180.5,227.127 175.127,232.5 168.5,232.5 L142.5,232.5 C135.873,232.5 130.5,227.127 130.5,220.5 L130.5,195.5 Z" style="stroke:#323232;stroke-opacity:1;stroke-width:0;stroke-linejoin:miter;stroke-miterlimit:2;stroke-linecap:round;fill-rule:evenodd;fill:#da2dff;fill-opacity:0.784314;"/>
        </g>
        <g id="Shape14">
            <desc type="0" basicInfo-basicType="2" basicInfo-roundedRectRadius="12" basicInfo-polygonSides="6" basicInfo-starPoints="5" bounding="rect(-107,-35.5,214,71)" text="" font-familyName="Helvetica" font-pixelSize="20" font-bold="0" font-underline="0" font-alignment="1" strokeStyle="0" markerStart="0" markerEnd="0" shadowEnabled="0" shadowOffsetX="0" shadowOffsetY="2" shadowBlur="4" shadowOpacity="160" blurEnabled="0" blurRadius="4" transform="matrix(1,0,0,1,302.5,238)" pers-center="0,0" pers-size="0,0" pers-start="0,0" pers-end="0,0" locked="0" mesh="" flag=""/>
            <path id="shapePath14" d="M195.5,214.5 C195.5,207.873 200.873,202.5 207.5,202.5 L397.5,202.5 C404.127,202.5 409.5,207.873 409.5,214.5 L409.5,261.5 C409.5,268.127 404.127,273.5 397.5,273.5 L207.5,273.5 C200.873,273.5 195.5,268.127 195.5,261.5 L195.5,214.5 Z" style="stroke:#323232;stroke-opacity:1;stroke-width:0;stroke-linejoin:miter;stroke-miterlimit:2;stroke-linecap:round;fill-rule:evenodd;fill:#dcff32;fill-opacity:0.784314;"/>
        </g>
        <g id="Shape15">
            <desc type="0" basicInfo-basicType="1" basicInfo-roundedRectRadius="12" basicInfo-polygonSides="6" basicInfo-starPoints="5" bounding="rect(-19.5,-12,39,24)" text="" font-familyName="Helvetica" font-pixelSize="20" font-bold="0" font-underline="0" font-alignment="1" strokeStyle="0" markerStart="0" markerEnd="0" shadowEnabled="0" shadowOffsetX="0" shadowOffsetY="2" shadowBlur="4" shadowOpacity="160" blurEnabled="0" blurRadius="4" transform="matrix(1,0,0,1,66,307.5)" pers-center="0,0" pers-size="0,0" pers-start="0,0" pers-end="0,0" locked="0" mesh="" flag=""/>
            <path id="shapePath15" d="M46.5,295.5 L85.5,295.5 L85.5,319.5 L46.5,319.5 L46.5,295.5 Z" style="stroke:#323232;stroke-opacity:1;stroke-width:0;stroke-linejoin:miter;stroke-miterlimit:2;stroke-linecap:round;fill-rule:evenodd;fill:#4545ff;fill-opacity:0.784314;"/>
        </g>
        <g id="Shape16">
            <desc type="0" basicInfo-basicType="4" basicInfo-roundedRectRadius="12" basicInfo-polygonSides="6" basicInfo-starPoints="5" bounding="rect(-14.5,-12,29,24)" text="" font-familyName="Helvetica" font-pixelSize="20" font-bold="0" font-underline="0" font-alignment="1" strokeStyle="0" markerStart="0" markerEnd="0" shadowEnabled="0" shadowOffsetX="0" shadowOffsetY="2" shadowBlur="4" shadowOpacity="160" blurEnabled="0" blurRadius="4" transform="matrix(1,0,0,1,33,335.5)" pers-center="0,0" pers-size="0,0" pers-start="0,0" pers-end="0,0" locked="0" mesh="" flag=""/>
            <path id="shapePath16" d="M18.5,335.5 C18.5,328.873 24.9919,323.5 33,323.5 C41.0081,323.5 47.5,328.873 47.5,335.5 C47.5,342.127 41.0081,347.5 33,347.5 C24.9919,347.5 18.5,342.127 18.5,335.5 Z" style="stroke:#323232;stroke-opacity:1;stroke-width:0;stroke-linejoin:miter;stroke-miterlimit:2;stroke-linecap:round;fill-rule:evenodd;fill:#ff6182;fill-opacity:0.784314;"/>
        </g>
        <g id="Shape17">
            <desc type="0" basicInfo-basicType="5" basicInfo-roundedRectRadius="12" basicInfo-polygonSides="6" basicInfo-starPoints="5" bounding="rect(-19,-11.6914,38,23.3828)" text="" font-familyName="Helvetica" font-pixelSize="20" font-bold="0" font-underline="0" font-alignment="1" strokeStyle="0" markerStart="0" markerEnd="0" shadowEnabled="0" shadowOffsetX="0" shadowOffsetY="2" shadowBlur="4" shadowOpacity="160" blurEnabled="0" blurRadius="4" transform="matrix(1,0,0,1,80.5,313)" pers-center="0,0" pers-size="0,0" pers-start="0,0" pers-end="0,0" locked="0" mesh="" flag=""/>
            <path id="shapePath17" d="M99.5,313 L90,324.691 L70.9999,324.691 L61.5,313 L71.0002,301.309 L90.0002,301.309 L99.5,313 Z" style="stroke:#323232;stroke-opacity:1;stroke-width:0;stroke-linejoin:miter;stroke-miterlimit:2;stroke-linecap:round;fill-rule:evenodd;fill:#ff6182;fill-opacity:0.784314;"/>
        </g>
        <g id="Shape18">
            <desc type="0" basicInfo-basicType="5" basicInfo-roundedRectRadius="12" basicInfo-polygonSides="6" basicInfo-starPoints="5" bounding="rect(-21.5,-12.9904,43,25.9808)" text="" font-familyName="Helvetica" font-pixelSize="20" font-bold="0" font-underline="0" font-alignment="1" strokeStyle="0" markerStart="0" markerEnd="0" shadowEnabled="0" shadowOffsetX="0" shadowOffsetY="2" shadowBlur="4" shadowOpacity="160" blurEnabled="0" blurRadius="4" transform="matrix(1,0,0,1,79,271.5)" pers-center="0,0" pers-size="0,0" pers-start="0,0" pers-end="0,0" locked="0" mesh="" flag=""/>
            <path id="shapePath18" d="M100.5,271.5 L89.75,284.49 L68.2499,284.49 L57.5,271.5 L68.2502,258.51 L89.7502,258.51 L100.5,271.5 Z" style="stroke:#323232;stroke-opacity:1;stroke-width:0;stroke-linejoin:miter;stroke-miterlimit:2;stroke-linecap:round;fill-rule:evenodd;fill:#68ffc2;fill-opacity:0.784314;"/>
        </g>
        <g id="Shape19">
            <desc type="0" basicInfo-basicType="5" basicInfo-roundedRectRadius="12" basicInfo-polygonSides="6" basicInfo-starPoints="5" bounding="rect(-15.5,-9.09332,31,18.1866)" text="" font-familyName="Helvetica" font-pixelSize="20" font-bold="0" font-underline="0" font-alignment="1" strokeStyle="0" markerStart="0" markerEnd="0" shadowEnabled="0" shadowOffsetX="0" shadowOffsetY="2" shadowBlur="4" shadowOpacity="160" blurEnabled="0" blurRadius="4" transform="matrix(1,0,0,1,65,305)" pers-center="0,0" pers-size="0,0" pers-start="0,0" pers-end="0,0" locked="0" mesh="" flag=""/>
            <path id="shapePath19" d="M80.5,305 L72.75,314.093 L57.2499,314.093 L49.5,305 L57.2501,295.907 L72.7502,295.907 L80.5,305 Z" style="stroke:#323232;stroke-opacity:1;stroke-width:0;stroke-linejoin:miter;stroke-miterlimit:2;stroke-linecap:round;fill-rule:evenodd;fill:#68ffc2;fill-opacity:0.784314;"/>
        </g>
        <g id="Shape20">
            <desc type="0" basicInfo-basicType="4" basicInfo-roundedRectRadius="12" basicInfo-polygonSides="6" basicInfo-starPoints="5" bounding="rect(-18.5,-16,37,32)" text="" font-familyName="Helvetica" font-pixelSize="20" font-bold="0" font-underline="0" font-alignment="1" strokeStyle="0" markerStart="0" markerEnd="0" shadowEnabled="0" shadowOffsetX="0" shadowOffsetY="2" shadowBlur="4" shadowOpacity="160" blurEnabled="0" blurRadius="4" transform="matrix(1,0,0,1,50,321.5)" pers-center="0,0" pers-size="0,0" pers-start="0,0" pers-end="0,0" locked="0" mesh="" flag=""/>
            <path id="shapePath20" d="M31.5,321.5 C31.5,312.663 39.7827,305.5 50,305.5 C60.2173,305.5 68.5,312.663 68.5,321.5 C68.5,330.337 60.2173,337.5 50,337.5 C39.7827,337.5 31.5,330.337 31.5,321.5 Z" style="stroke:#323232;stroke-opacity:1;stroke-width:0;stroke-linejoin:miter;stroke-miterlimit:2;stroke-linecap:round;fill-rule:evenodd;fill:#ff6cfe;fill-opacity:0.784314;"/>
        </g>
        <g id="Shape21">
            <desc type="0" basicInfo-basicType="5" basicInfo-roundedRectRadius="12" basicInfo-polygonSides="6" basicInfo-starPoints="5" bounding="rect(-61,-28.1459,122,56.2919)" text="" font-familyName="Helvetica" font-pixelSize="20" font-bold="0" font-underline="0" font-alignment="1" strokeStyle="0" markerStart="0" markerEnd="0" shadowEnabled="0" shadowOffsetX="0" shadowOffsetY="2" shadowBlur="4" shadowOpacity="160" blurEnabled="0" blurRadius="4" transform="matrix(1,0,0,1,426.5,220)" pers-center="0,0" pers-size="0,0" pers-start="0,0" pers-end="0,0" locked="0" mesh="" flag=""/>
            <path id="shapePath21" d="M487.5,220 L457,248.146 L396,248.146 L365.5,220 L396.001,191.854 L457.001,191.854 L487.5,220 Z" style="stroke:#323232;stroke-opacity:1;stroke-width:0;stroke-linejoin:miter;stroke-miterlimit:2;stroke-linecap:round;fill-rule:evenodd;fill:#ff6cfe;fill-opacity:0.784314;"/>
        </g>
        <g id="Shape22">
            <desc type="0" basicInfo-basicType="5" basicInfo-roundedRectRadius="12" basicInfo-polygonSides="6" basicInfo-starPoints="5" bounding="rect(-39.5,-20.3517,79,40.7033)" text="" font-familyName="Helvetica" font-pixelSize="20" font-bold="0" font-underline="0" font-alignment="1" strokeStyle="0" markerStart="0" markerEnd="0" shadowEnabled="0" shadowOffsetX="0" shadowOffsetY="2" shadowBlur="4" shadowOpacity="160" blurEnabled="0" blurRadius="4" transform="matrix(1,0,0,1,385,263)" pers-center="0,0" pers-size="0,0" pers-start="0,0" pers-end="0,0" locked="0" mesh="" flag=""/>
            <path id="shapePath22" d="M424.5,263 L404.75,283.352 L365.25,283.352 L345.5,263 L365.25,242.648 L404.75,242.649 L424.5,263 Z" style="stroke:#323232;stroke-opacity:1;stroke-width:0;stroke-linejoin:miter;stroke-miterlimit:2;stroke-linecap:round;fill-rule:evenodd;fill:#ff6cfe;fill-opacity:0.784314;"/>
        </g>
        <g id="Shape23">
            <desc type="0" basicInfo-basicType="5" basicInfo-roundedRectRadius="12" basicInfo-polygonSides="6" basicInfo-starPoints="5" bounding="rect(-41.5,-28.1459,83,56.2919)" text="" font-familyName="Helvetica" font-pixelSize="20" font-bold="0" font-underline="0" font-alignment="1" strokeStyle="0" markerStart="0" markerEnd="0" shadowEnabled="0" shadowOffsetX="0" shadowOffsetY="2" shadowBlur="4" shadowOpacity="160" blurEnabled="0" blurRadius="4" transform="matrix(1,0,0,1,366,220)" pers-center="0,0" pers-size="0,0" pers-start="0,0" pers-end="0,0" locked="0" mesh="" flag=""/>
            <path id="shapePath23" d="M407.5,220 L386.75,248.146 L345.25,248.146 L324.5,220 L345.25,191.854 L386.75,191.854 L407.5,220 Z" style="stroke:#323232;stroke-opacity:1;stroke-width:0;stroke-linejoin:miter;stroke-miterlimit:2;stroke-linecap:round;fill-rule:evenodd;fill:#ff9763;fill-opacity:0.784314;"/>
        </g>
        <g id="Shape24">
            <desc type="0" basicInfo-basicType="5" basicInfo-roundedRectRadius="12" basicInfo-polygonSides="6" basicInfo-starPoints="5" bounding="rect(-11,-10.8253,22,21.6507)" text="" font-familyName="Helvetica" font-pixelSize="20" font-bold="0" font-underline="0" font-alignment="1" strokeStyle="0" markerStart="0" markerEnd="0" shadowEnabled="0" shadowOffsetX="0" shadowOffsetY="2" shadowBlur="4" shadowOpacity="160" blurEnabled="0" blurRadius="4" transform="matrix(1,0,0,1,425.5,226)" pers-center="0,0" pers-size="0,0" pers-start="0,0" pers-end="0,0" locked="0" mesh="" flag=""/>
            <path id="shapePath24" d="M436.5,226 L431,236.825 L420,236.825 L414.5,226 L420,215.175 L431,215.175 L436.5,226 Z" style="stroke:#323232;stroke-opacity:1;stroke-width:0;stroke-linejoin:miter;stroke-miterlimit:2;stroke-linecap:round;fill-rule:evenodd;fill:#ff9763;fill-opacity:0.784314;"/>
        </g>
        <g id="Shape25">
            <desc type="2" basicInfo-basicType="0" basicInfo-roundedRectRadius="12" basicInfo-polygonSides="6" basicInfo-starPoints="5" bounding="rect(-328.307,-102,656.614,204)" text="(    );" font-familyName="Consolas" font-pixelSize="170" font-bold="0" font-underline="0" font-alignment="1" strokeStyle="0" markerStart="0" markerEnd="0" shadowEnabled="0" shadowOffsetX="0" shadowOffsetY="2" shadowBlur="4" shadowOpacity="160" blurEnabled="0" blurRadius="4" transform="matrix(1,0,0,1,328.307,227.158)" pers-center="0,0" pers-size="0,0" pers-start="0,0" pers-end="0,0" locked="0" mesh="" flag=""/>
            <path id="shapePath25" d="M64.3979,303.271 C38.8869,279.642 26.1313,253.522 26.1313,224.912 C26.1313,218.216 26.8092,211.534 28.165,204.866 C29.5208,198.197 31.7067,191.515 34.7227,184.819 C37.7386,178.123 41.723,171.427 46.6758,164.731 C51.6286,158.035 57.6466,151.395 64.73,144.81 L73.1138,153.359 C51.6424,174.554 40.9067,198.045 40.9067,223.833 C40.9067,236.672 43.6183,249.012 49.0415,260.854 C54.4647,272.697 62.4888,283.875 73.1138,294.39 L64.3979,303.271 M498.792,144.81 C524.304,168.439 537.059,194.725 537.059,223.667 C537.059,229.644 536.45,235.841 535.233,242.261 C534.015,248.68 531.94,255.251 529.007,261.975 C526.074,268.699 522.132,275.519 517.179,282.437 C512.226,289.354 505.987,296.299 498.46,303.271 L490.077,294.722 C500.868,284.041 508.919,272.891 514.232,261.27 C519.544,249.648 522.201,237.474 522.201,224.746 C522.201,198.405 511.493,174.72 490.077,153.691 L498.792,144.81 M582.7,285.425 C585.522,285.535 588.261,285.286 590.917,284.678 C593.574,284.069 595.912,283.17 597.932,281.98 C599.952,280.79 601.57,279.31 602.788,277.539 C604.005,275.768 604.614,273.748 604.614,271.479 C604.614,269.155 604.213,267.274 603.41,265.835 C602.608,264.396 601.708,263.068 600.712,261.851 C599.716,260.633 598.817,259.333 598.015,257.949 C597.212,256.566 596.811,254.712 596.811,252.388 C596.811,251.226 597.032,250.008 597.475,248.735 C597.918,247.463 598.596,246.3 599.509,245.249 C600.422,244.198 601.584,243.34 602.995,242.676 C604.406,242.012 606.08,241.68 608.017,241.68 C609.954,241.68 611.822,242.081 613.62,242.883 C615.419,243.686 616.996,244.917 618.352,246.577 C619.707,248.237 620.786,250.312 621.589,252.803 C622.391,255.293 622.792,258.226 622.792,261.602 C622.792,266.195 621.949,270.608 620.261,274.841 C618.573,279.075 616.055,282.824 612.707,286.089 C609.359,289.354 605.181,291.955 600.173,293.892 C595.165,295.828 589.34,296.797 582.7,296.797 L582.7,285.425 M608.681,183.574 C610.397,183.574 612.029,183.92 613.579,184.612 C615.128,185.304 616.484,186.23 617.646,187.393 C618.808,188.555 619.735,189.91 620.427,191.46 C621.119,193.009 621.464,194.642 621.464,196.357 C621.464,198.128 621.119,199.775 620.427,201.296 C619.735,202.818 618.808,204.16 617.646,205.322 C616.484,206.484 615.128,207.397 613.579,208.062 C612.029,208.726 610.397,209.058 608.681,209.058 C606.91,209.058 605.264,208.726 603.742,208.062 C602.22,207.397 600.878,206.484 599.716,205.322 C598.554,204.16 597.641,202.818 596.977,201.296 C596.313,199.775 595.981,198.128 595.981,196.357 C595.981,194.642 596.313,193.009 596.977,191.46 C597.641,189.91 598.554,188.555 599.716,187.393 C600.878,186.23 602.22,185.304 603.742,184.612 C605.264,183.92 606.91,183.574 608.681,183.574 " style="stroke:none;fill-rule:nonzero;fill:#000000;fill-opacity:1;"/>
        </g>
    </g>
</svg>
