<?xml version="1.0" encoding="utf-8"?>
<!-- Generator: Adobe Illustrator 16.0.0, SVG Export Plug-In . SVG Version: 6.00 Build 0)  -->
<!DOCTYPE svg PUBLIC "-//W3C//DTD SVG 1.1//EN" "http://www.w3.org/Graphics/SVG/1.1/DTD/svg11.dtd">
<svg version="1.1" id="Capa_1" xmlns="http://www.w3.org/2000/svg" xmlns:xlink="http://www.w3.org/1999/xlink" x="0px" y="0px"
	 width="364.606px" height="20.25px" viewBox="0 0 364.606 20.25" enable-background="new 0 0 364.606 20.25" xml:space="preserve">
<g id="Lápiz_Goma">
	<path fill="#E29088" d="M348.519,20.045c0,0,14.277,0.461,14.482,0c1.799-4.044,2.458-16.494,0-19.775
		c-0.455-0.607-14.482,0-14.482,0V20.045z"/>
	<polygon fill="#F2F2E9" points="33.675,20.045 0,10.159 33.675,0.27 	"/>
	<polygon fill="#3A3A3A" points="10.805,13.331 10.805,6.985 0,10.159 	"/>
	<path fill="#EAE78C" d="M33.675,6.862c-4.821,3.252,0,6.594,0,6.594c-4.821,3.25,0,6.59,0,6.59h314.844v-6.591V6.862V0.27H33.675
		C28.854,3.52,33.675,6.862,33.675,6.862z"/>
	<rect x="317.462" y="0.27" fill="#F4F4F4" width="31.057" height="19.775"/>
	<rect x="320.254" y="0.27" fill="#DDDDDD" width="1.125" height="19.775"/>
	<rect x="322.254" y="0.27" fill="#DDDDDD" width="1.125" height="19.775"/>
	<rect x="324.254" y="0.27" fill="#DDDDDD" width="1.125" height="19.775"/>
	<rect x="341.254" y="0.27" fill="#DDDDDD" width="1.125" height="19.775"/>
	<rect x="343.254" y="0.27" fill="#DDDDDD" width="1.125" height="19.775"/>
	<rect x="345.254" y="0.27" fill="#DDDDDD" width="1.125" height="19.775"/>
</g>
</svg>
