<?xml version="1.0" encoding="utf-8"?>
<!-- Generator: Adobe Illustrator 16.0.0, SVG Export Plug-In . SVG Version: 6.00 Build 0)  -->
<!DOCTYPE svg PUBLIC "-//W3C//DTD SVG 1.1//EN" "http://www.w3.org/Graphics/SVG/1.1/DTD/svg11.dtd">
<svg version="1.1" id="Capa_1" xmlns="http://www.w3.org/2000/svg" xmlns:xlink="http://www.w3.org/1999/xlink" x="0px" y="0px"
	 width="163.366px" height="438.592px" viewBox="0 0 163.366 438.592" enable-background="new 0 0 163.366 438.592"
	 xml:space="preserve">
<g id="Compás_1_">
	<circle fill="#CDCCCC" cx="25.526" cy="377.783" r="13.614"/>
	<polygon fill="#DDDDDD" points="86.787,121.842 92.233,105.053 99.041,102.785 149.166,391.397 142.359,410.909 133.53,409.095 	
		"/>
	<polygon fill="#DDDDDD" points="74.291,121.842 68.845,105.053 62.039,102.785 11.912,391.397 18.718,410.909 27.551,409.095 	"/>
	<polygon fill="#CDCCCC" points="27.551,409.095 23.133,438.592 18.718,410.909 	"/>
	<polygon fill="#CDCCCC" points="133.53,409.095 137.943,438.592 142.359,410.909 	"/>
	<circle fill="#F4F4F4" cx="81.778" cy="128.65" r="13.614"/>
	<path fill="#F4F4F4" d="M81.002,56.497c-20.676,0-37.438,16.762-37.438,37.439c0,20.675,16.763,37.437,37.438,37.437
		c20.678,0,37.438-16.762,37.438-37.437C118.44,73.259,101.68,56.497,81.002,56.497z M81.002,126.269
		c-17.857,0-32.332-14.478-32.332-32.332c0-17.856,14.475-32.334,32.332-32.334c17.856,0,32.334,14.478,32.334,32.334
		C113.336,111.791,98.858,126.269,81.002,126.269z"/>
	<circle fill="#F4F4F4" cx="135.553" cy="377.783" r="13.613"/>
	<circle fill="#DDDDDD" cx="135.552" cy="377.783" r="6.807"/>
	<rect y="196.719" fill="#DDDDDD" width="163.366" height="5.445"/>
	<path fill="#DDDDDD" d="M82.364,227.133c0.752,0,1.361-0.61,1.361-1.361v-52.658c0-0.752-0.609-1.361-1.361-1.361h-2.723
		c-0.753,0-1.363,0.609-1.363,1.361v52.658c0,0.751,0.61,1.361,1.363,1.361H82.364z"/>
	<rect x="73.175" fill="#DDDDDD" width="15.656" height="72.152"/>
</g>
</svg>
