<?xml version="1.0" encoding="utf-8"?>
<!-- Generator: Adobe Illustrator 16.0.0, SVG Export Plug-In . SVG Version: 6.00 Build 0)  -->
<!DOCTYPE svg PUBLIC "-//W3C//DTD SVG 1.1//EN" "http://www.w3.org/Graphics/SVG/1.1/DTD/svg11.dtd">
<svg version="1.1" id="Capa_1" xmlns="http://www.w3.org/2000/svg" xmlns:xlink="http://www.w3.org/1999/xlink" x="0px" y="0px"
	 width="297.775px" height="42.501px" viewBox="0 0 297.775 42.501" enable-background="new 0 0 297.775 42.501"
	 xml:space="preserve">
<g id="Cutter">
	<polygon fill="#DDDDDD" points="16.983,9.888 0,34 257.775,34.001 257.775,9.889 	"/>
	<polygon fill="#F4F4F4" points="18.983,6.888 2,31 259.775,31.001 259.775,6.889 	"/>
	<g>
		<polygon fill="#DDDDDD" points="19.125,31.001 36.108,6.889 37.776,6.889 20.942,31.001 		"/>
		<polygon fill="#DDDDDD" points="39.125,31.001 56.108,6.889 57.776,6.889 40.942,31.001 		"/>
		<polygon fill="#DDDDDD" points="59.125,31.001 76.108,6.889 77.776,6.889 60.942,31.001 		"/>
		<polygon fill="#DDDDDD" points="79.125,31.001 96.108,6.889 97.776,6.889 80.942,31.001 		"/>
		<polygon fill="#DDDDDD" points="99.125,31.001 116.108,6.889 117.776,6.889 100.942,31.001 		"/>
		<polygon fill="#DDDDDD" points="119.125,31.001 136.108,6.889 137.776,6.889 120.942,31.001 		"/>
		<polygon fill="#DDDDDD" points="139.125,31.001 156.109,6.889 157.777,6.889 140.942,31.001 		"/>
		<polygon fill="#DDDDDD" points="159.125,31.001 176.109,6.889 177.777,6.889 160.943,31.001 		"/>
		<polygon fill="#DDDDDD" points="179.125,31.001 196.109,6.889 197.777,6.889 180.943,31.001 		"/>
		<polygon fill="#DDDDDD" points="199.125,31.001 216.109,6.889 217.777,6.889 200.943,31.001 		"/>
		<polygon fill="#DDDDDD" points="219.125,31.001 236.109,6.889 237.777,6.889 220.943,31.001 		"/>
		<polygon fill="#DDDDDD" points="239.125,31.001 256.109,6.889 257.777,6.889 240.943,31.001 		"/>
	</g>
	<path fill="#2D2D2D" d="M297.775,32.501c0,5.522-4.477,10-10,10h-41.5c-5.521,0-10-4.478-10-10v-22.5c0-5.522,4.479-10,10-10h41.5
		c5.523,0,10,4.478,10,10V32.501z"/>
	<rect x="196.693" y="6.001" fill="#DED87F" width="50.082" height="30.5"/>
	<polygon fill="#EAE78C" points="95.874,31 89.15,21.25 96.145,11 269.775,11.001 269.775,0.001 53.65,0 39.15,21.25 53.65,42.5 
		269.775,42.501 269.775,31.001 	"/>
	<path fill="#2D2D2D" d="M202.443,31.501c0,2.762-2.238,5-5,5h-38.5c-2.762,0-5-2.238-5-5v-20.5c0-2.762,2.238-5,5-5h38.5
		c2.762,0,5,2.238,5,5V31.501z"/>
	<path fill="#2D2D2D" d="M230.943,31.501c0,2.762-2.238,5-5,5h-18.5c-2.762,0-5-2.238-5-5v-20.5c0-2.762,2.238-5,5-5h18.5
		c2.762,0,5,2.238,5,5V31.501z"/>
	<circle fill="#2D2D2D" cx="125.463" cy="21.251" r="6.338"/>
</g>
</svg>
