<?xml version="1.0" encoding="utf-8"?><svg width="100%" height="100%" version="1.1" viewBox="-11305.908203125 -18329.431640625 22128.7775878906 25884.431640625" style="background-color:transparent" xmlns:xlink="http://www.w3.org/1999/xlink" xmlns="http://www.w3.org/2000/svg"><defs /><g id="layer1"><path d="M-5263.45458984375 6453.39306640625 C-6108.6748046875 6453.39306640625 -6960.1875 6409.94970703125 -7800.0498046875 6520.0732421875 C-8461.546875 6606.8095703125 -9063.0634765625 6975.66455078125 -9720.37890625 7093.5029296875 C-10273.5966796875 7192.6796875 -10766.7890625 7062.412109375 -11302.908203125 7062.412109375" opacity="1" stroke="#FF6666" stroke-opacity="1" stroke-width="60" stroke-linecap="butt" stroke-linejoin="miter" stroke-dasharray="none" fill-opacity="0" /><path d="M-5263.45458984375 6581.39306640625 C-6108.6748046875 6581.39306640625 -6960.1875 6537.94970703124 -7800.0498046875 6648.07324218749 C-8461.546875 6734.8095703125 -9063.0634765625 7103.66455078125 -9720.37890625 7221.5029296875 C-10273.5966796875 7320.67968750001 -10766.7890625 7190.412109375 -11302.908203125 7190.412109375" opacity="1" stroke="#66FFCC" stroke-opacity="1" stroke-width="60" stroke-linecap="butt" stroke-linejoin="miter" stroke-dasharray="none" fill-opacity="0" /><g><path d="M10819.869140625 -18326.431640625 C10819.869140625 -17866.37890625 10164.8095703125 -17079.095703125 9934.6318359375 -16762.66796875 C9333.5458984375 -15936.349609375 8457.7509765625 -15032.1689453125 8075.5673828125 -14077.42578125 C7902.2724609375 -13644.5126953125 7990.361328125 -13035.1904296875 7898.38720703125 -12572.7216796875 C7528.85888671875 -10714.640625 7027.10400390625 -8821.984375 6452.7431640625 -7025.39013671875 C6139.5234375 -6045.64208984375 6015.4482421875 -4918.32275390625 5360.7958984375 -4045.1796875 C4344.462890625 -2689.64599609375 2462.01708984375 -2009.26696777344 850.001159667969 -2009.26696777344 C399.44189453125 -2009.26696777344 -328.446105957031 -1928.69470214844 -714.094848632813 -2186.115234375 C-1451.35034179688 -2678.23315429688 -1949.54907226563 -4615.62890625 -1658.06030273438 -5490.82373046875 C-1459.47546386719 -6087.0751953125 -1127.88586425781 -7193.26416015625 -773.154907226563 -7700.26708984375 C-728.01123046875 -7764.7890625 -609.294372558594 -7669.2470703125 -536.914733886719 -7700.26708984375 C-271.665588378906 -7813.9453125 219.950168609619 -8097.58837890625 407.382553100586 -8231.47607421875 C1835.81323242188 -9251.837890625 3058.751953125 -10511.830078125 4361.08837890625 -11683.8349609375 C5178.49755859375 -12419.44140625 6083.1640625 -13004.8349609375 6869.4814453125 -13749.27734375 C7349.921875 -14204.1328125 7594.77294921875 -14863.7001953125 8049.68701171875 -15342.5712890625 C8896.640625 -16234.1279296875 10017.677734375 -16956.533203125 10819.869140625 -17758.724609375" opacity="1" fill="#FFCC66" fill-opacity="1" /></g><path d="M-5263.45458984375 6517.39306640625 C-6108.6748046875 6517.39306640625 -6960.1875 6473.94970703124 -7800.0498046875 6584.07324218749 C-8461.546875 6670.8095703125 -9063.0634765625 7039.66455078125 -9720.37890625 7157.5029296875 C-10273.5966796875 7256.67968750001 -10766.7890625 7126.412109375 -11302.908203125 7126.412109375" opacity="1" stroke="#6666FF" stroke-opacity="1" stroke-width="60" stroke-linecap="butt" stroke-linejoin="miter" stroke-dasharray="none" fill-opacity="0" /><g><rect x="-5376" y="1152" width="3584" height="6400" opacity="1" fill="#4C4C4C" fill-opacity="1" /><rect x="-5120" y="6784" width="3072" height="128" opacity="1" fill="#333333" fill-opacity="1" /><rect x="-5120" y="6528" width="3072" height="128" opacity="1" fill="#333333" fill-opacity="1" /><rect x="-5120" y="7040" width="3072" height="128" opacity="1" fill="#333333" fill-opacity="1" /><g><path d="M-2240 1280 C-2134.4 1280 -2048 1366.4 -2048 1472 C-2048 1577.6 -2134.4 1664 -2240 1664 C-2345.6 1664 -2432 1577.6 -2432 1472 C-2432 1366.4 -2345.6 1280 -2240 1280 Z M-2240 1248 C-2363.2 1248 -2464 1348.8 -2464 1472 C-2464 1595.2 -2363.2 1696 -2240 1696 C-2116.8 1696 -2016 1595.2 -2016 1472 C-2016 1348.8 -2116.8 1248 -2240 1248 Z " fill-rule="evenodd" opacity="1" fill="#B6E2C6" fill-opacity="1" /></g><rect x="-2240" y="1312" width="32" height="128" rx="32" ry="32" opacity="1" fill="#B6E2C6" fill-opacity="1" /><g><path d="M-2325.86933486274 1344.66335004108 C-2361.21332034461 1372.55894421803 -2384 1415.74761881397 -2384 1464 C-2384 1547.6 -2315.6 1616 -2232 1616 C-2148.4 1616 -2080 1547.6 -2080 1464 C-2080 1420.21714813079 -2098.76081237518 1380.60336567828 -2128.64047396208 1352.80061580593 L-2128.64049264474 1352.80061580593 L-2142.23300599761 1369.79125749702 L-2142.23299654815 1369.79125749702 C-2117.3048886967 1393.56086114856 -2101.71428571429 1427.04814135401 -2101.71428571429 1464 C-2101.71428571429 1535.65714285714 -2160.34285714286 1594.28571428571 -2232 1594.28571428571 C-2303.65714285714 1594.28571428571 -2362.28571428571 1535.65714285714 -2362.28571428571 1464 C-2362.28571428571 1422.57705565487 -2342.69400773797 1385.50782387591 -2312.31924304043 1361.60095306106 L-2312.31923755115 1361.60095306106 L-2325.86931996714 1344.66335004108 Z " opacity="1" fill="#B6E2C6" fill-opacity="1" /></g></g><g><path d="M960.762030614776 -7722.75196304146 L264.784999726845 -6919.70154278616 L264.784999726849 -6919.70154278616 L122.269348013734 -6907.0184202293 L81.6811481123555 -6730.00524188942 L81.6811481123545 -6730.00524188942 L-444.479198577503 -6537.60765699328 L-429.23161479902 -6118.91314141016 L-429.231614799018 -6118.91314141016 L-995.387289014574 -5465.65659423836 L-995.387289014574 -5465.65659423836 L-425.114706806627 -4519.7681467075 L-425.114706806628 -4519.7681467075 L-545.265894876842 -3995.76501936262 L-347.602452651506 -3877.39848575436 L-347.602452651504 -3877.39848575436 L-335.780904379878 -3552.78197608706 L260.355305642861 -3382.80630401385 L260.35530564286 -3382.80630401385 L546.754586084764 -2907.76721007339 L1068.92422455809 -3029.14171830526 L1068.92422455808 -3029.14171830526 L2017.22088820644 -2461.27450095521 L2380.73269232415 -2778.22539567376 L2380.73269232416 -2778.22539567376 L2536.54662961773 -2733.79833644708 L2829.48229005419 -3169.49628397499 L3249.9458990599 -3536.10423332179 L3249.9458990599 -3536.10423332179 L3456 -3584 L3468.24783796104 -3726.44466812953 L3468.24783796104 -3726.44466812953 L4268.46005876486 -4424.16060603166 L4037.44103518151 -4966.15410694613 L4037.44103518151 -4966.15410694613 L4203.0443782528 -5212.4642918257 L3656.03555589292 -5910.4512858442 L3711.87067231503 -6559.82423264678 L3280.41824373469 -6742.2045232456 L3280.4182437347 -6742.2045232456 L3097.31559989181 -7171.78145342121 L2695.55800685669 -7136.02719955954 L2695.55800685669 -7136.02719955954 L2360.66909508684 -7563.34773864689 L1812.25824209654 -7362.8139578138 L1812.25824209655 -7362.8139578138 L960.762030614776 -7722.75196304146 Z " opacity="1" fill="#E6E6E6" fill-opacity="1" /><path d="M226.901016235352 -6397.86474609375 C14.6255645751953 -6397.86474609375 -37.0295486450195 -5996.68603515625 -112.230781555176 -5879.80029296875 C-205.015502929688 -5735.58447265625 -407.375244140625 -5688.56005859375 -518.052062988281 -5559.40234375 C-571.115661621094 -5497.478515625 -322.61865234375 -5347.65625 -290.282989501953 -5303.13232421875 C-154.137145996094 -5115.66845703125 -128.107406616211 -4819.181640625 -90.9349670410156 -4605.4140625 C-49.6919708251953 -4368.23779296875 -105.491676330566 -4373.83935546875 -240.405944824219 -4163.96630859375 C-280.681915283203 -4101.31298828125 -367.144653320313 -4019.46606445313 -325.829376220703 -3957.49291992188 C-285.449005126953 -3896.92260742188 313.108337402344 -4030.5439453125 336.26220703125 -4099.9189453125 C391.001861572266 -4263.9326171875 146.664596557617 -4722.7587890625 186.791244506836 -4776.2607421875 C257.034423828125 -4869.91845703125 376.025695800781 -4847.921875 343.387512207031 -5011.2353515625 C310.107177734375 -5177.76220703125 122.663627624512 -5337.59326171875 122.663627624512 -5495.35498046875 C122.663627624512 -5758.28662109375 244.174255371094 -5930.99853515625 314.886352539063 -6178.822265625 C329.276519775391 -6229.25537109375 501.3583984375 -6320.55029296875 457.312103271484 -6371.125 C427.368774414063 -6405.50634765625 269.009582519531 -6405.791015625 222.337631225586 -6405.791015625" opacity="1" fill="#CCCCCC" fill-opacity="1" /><path d="M2289.47241210938 -3208.216796875 C2421.1181640625 -3208.216796875 2499.18017578125 -3586.28295898438 2623.240234375 -3663.8349609375 C2652.81396484375 -3682.32202148438 3024.830078125 -3889.51708984375 2922.26220703125 -3905.05419921875 C2462.70190429688 -3974.66796875 1837.140625 -3743.06494140625 1405.77624511719 -3905.05419921875 C1202.11022949219 -3981.53637695313 1803.14404296875 -4457.083984375 1811.59765625 -4467.5517578125 C1847.17102050781 -4511.6015625 2357.2421875 -5333.87890625 1932.6474609375 -5179.5205078125 C1785.5029296875 -5126.02685546875 1608.40356445313 -4963.45556640625 1469.82385253906 -4887.62353515625 C1197.46704101563 -4738.58740234375 1220.67883300781 -4583.56689453125 1220.67883300781 -4296.625 C1220.67883300781 -4216.6611328125 1158.55712890625 -3739.32666015625 1234.92944335938 -3662.95434570313 C1366.45434570313 -3531.42944335938 1814.80895996094 -3434.13134765625 1982.44445800781 -3378.18286132813 C2022.18676757813 -3364.9189453125 2217.09912109375 -3129.5107421875 2265.53466796875 -3201.89208984375" opacity="1" fill="#C0C0C0" fill-opacity="1" /></g><path d="M5092.1875 -6957.1875 C5092.1875 -8490.7529296875 5400.84716796875 -9416 6154.60498046875 -10756.275390625 C6345.9326171875 -11096.48046875 6324.55419921875 -11453.0634765625 6508.63330078125 -11759.6328125 C6573.046875 -11866.908203125 6685.09375 -12113.048828125 6774.07177734375 -12025.0712890625 C6774.79638671875 -12024.3544921875 6191.35302734375 -10945.0078125 6184.134765625 -10933.455078125 C5684.54931640625 -10133.89453125 4365.88037109375 -9029.4306640625 3439.8330078125 -8720.3623046875 C3220.27001953125 -8647.0830078125 2985.87280273438 -8628.814453125 2761.30615234375 -8572.7119140625 C2271.55004882813 -8450.359375 1777.58557128906 -8302.4931640625 2584.1259765625 -7956.89501953125 C3062.45654296875 -7751.93310546875 3740.5927734375 -8028.29345703125 4147.89013671875 -7783.36474609375 C4399.05322265625 -7632.32763671875 4711.1708984375 -6780.00732421875 4823.09912109375 -6780.00732421875" opacity="1" fill="#FF8000" fill-opacity="1" /></g></svg>