<?xml version="1.0" encoding="utf-8"?><svg width="100%" height="100%" version="1.1" viewBox="3982 -7374.46435546875 2321 2792.751953125" style="" xmlns:xlink="http://www.w3.org/1999/xlink" xmlns="http://www.w3.org/2000/svg"><defs /><g id="layer1"><rect x="4174.00825146133" y="-6512.97296891481" width="110" height="41.6446302438862" opacity="1" fill="#1B7A3A" fill-opacity="1" transform="rotate(25 4229.00825146133 -6492.15065379287)" /><g transform="rotate(32 4372 -6501)"><path d="M4308 -6565 L4308 -6437 L4436 -6437 Z " opacity="1" fill="#20984B" fill-opacity="1" /></g><g transform="rotate(-89 4201.875 -6824.40966796875)"><path d="M4201.96809556168 -6870.1063079708 L4166.8755221859 -6824.345719801 L4201.78186402139 -6778.7128612336 L4236.87443739718 -6824.47344940339 Z " opacity="1" fill="#9C9C9C" fill-opacity="1" /></g><g transform="rotate(-89 4204.80126953125 -6772.4306640625)"><path d="M4204.89420747112 -6818.12725722681 L4169.80163409535 -6772.366669057 L4204.70797593082 -6726.7338104896 L4239.8005493066 -6772.4943986594 Z " opacity="1" fill="#9C9C9C" fill-opacity="1" /></g><g transform="rotate(-89 4203.92431640625 -6722.087890625)"><path d="M4204.01725972659 -6767.7846036277 L4168.92468635082 -6722.02401545789 L4203.83102818631 -6676.39115689048 L4238.92360156207 -6722.15174506028 Z " opacity="1" fill="#9C9C9C" fill-opacity="1" /></g><g transform="rotate(-89 4209.19091796875 -6665.53686523438)"><path d="M4209.28409096568 -6711.23363406555 L4174.19151758992 -6665.47304589575 L4209.09785942539 -6619.84018732836 L4244.19043280118 -6665.60077549817 Z " opacity="1" fill="#9C9C9C" fill-opacity="1" /></g><g transform="rotate(-89 4203.3369140625 -6607.02099609375)"><path d="M4203.4299659606 -6652.71779608852 L4168.33739258482 -6606.95720791872 L4203.24373442031 -6561.32434935133 L4238.33630779608 -6607.08493752111 Z " opacity="1" fill="#9C9C9C" fill-opacity="1" /></g><g transform="rotate(296 4345.89013671875 -6635.78662109375)"><path d="M4347.99252191429 -6682.5072205048 L4311.59277393032 -6634.34463337414 L4343.78751982915 -6589.06610789934 L4380.1872678131 -6637.22869502997 Z " opacity="1" fill="#9C9C9C" fill-opacity="1" /></g><g transform="rotate(295 4323.64453125 -6589.36840820313)"><path d="M4325.68842611381 -6636.01676660424 L4289.29764687638 -6587.9667525854 L4321.60064118717 -6542.72040513449 L4357.9914204246 -6590.77041915334 Z " opacity="1" fill="#9C9C9C" fill-opacity="1" /></g><g transform="rotate(295 4293.201171875 -6550.79370117188)"><path d="M4295.24506229876 -6597.44169903345 L4258.85428306134 -6549.39168501464 L4291.15727737212 -6504.1453375637 L4327.54805660958 -6552.19535158253 Z " opacity="1" fill="#9C9C9C" fill-opacity="1" /></g><g transform="rotate(19 4566.6826171875 -6687.69189453125)"><path d="M4564.7081511833 -6748.35032258125 L4534.95399258977 -6688.81872284369 L4568.65699030557 -6627.03384718847 L4598.41114889912 -6686.56544692605 Z " opacity="1" fill="#9C9C9C" fill-opacity="1" /></g><g transform="rotate(308 4556.51953125 -6663.84643554688)"><path d="M4561.01962150965 -6746.79172171689 L4522.90623396796 -6662.07097817748 L4552.01948081456 -6580.901445946 L4590.13286835624 -6665.62218948539 Z " opacity="1" fill="#9C9C9C" fill-opacity="1" /></g><g transform="rotate(314 4708.51782226563 -6668.25122070313)"><path d="M4712.33948523239 -6737.43194948899 L4675.28339060032 -6666.42218442111 L4704.69624353582 -6599.07011659932 L4741.75233816787 -6670.07988166722 Z " opacity="1" fill="#9C9C9C" fill-opacity="1" /></g><g transform="rotate(208 4720.7626953125 -6692.46850585938)"><path d="M4718.55073910198 -6742.32359148845 L4700.77881729808 -6693.41147947982 L4722.9746694929 -6642.61319246772 L4740.74659129682 -6691.52530447634 Z " opacity="1" fill="#9C9C9C" fill-opacity="1" /></g><path d="M4033.29835111836 -6297.19551262385 L4033.29835111836 -6841.8117167965 L4211.27045441501 -6841.8117167965 L4211.27045441501 -6297.19551262385 Z " opacity="1" fill="#20984B" fill-opacity="1" /><path d="M4139.75158533118 -6607.79326037331 L4468.52398933999 -6409.22236827837 L4430.31533119093 -6358.49911037284 L4101.54292718213 -6557.07000246778 Z " opacity="1" fill="#20984B" fill-opacity="1" transform="rotate(270 4285.03344726563 -6483.14624023438)" /><path d="M4036.81095842027 -6296.86861214115 C4008.31493168354 -6296.86861214115 3985.00000071713 -6356.74043554705 3985.00000071713 -6429.91710859869 C3985.00000071713 -6503.09378165034 4008.31493168354 -6562.96560505624 4036.81095842027 -6562.96560505624 C4065.30698515699 -6562.96560505624 4088.6219161234 -6503.09378165034 4088.6219161234 -6429.91710859869 C4088.6219161234 -6356.74043554705 4065.30698515699 -6296.86861214115 4036.81095842027 -6296.86861214115 Z " opacity="1" fill="#20984B" fill-opacity="1" /><path d="M4219.27075579858 -6140.03704143913 L4295.06668176639 -6622.95808032354 L4491.88790044618 -6598.18915082338 L4416.09197447838 -6115.26811193895 Z " opacity="1" fill="#20984B" fill-opacity="1" transform="rotate(270 4355.57934570313 -6369.11303710938)" /><path d="M4123.16255459217 -6781.988928463 C4073.73724268157 -6781.988928463 4033.29835111836 -6808.54142017004 4033.29835111836 -6840.99446558975 C4033.29835111836 -6873.44751100947 4073.73724268157 -6900.0000027165 4123.16255459217 -6900.0000027165 C4172.58786650275 -6900.0000027165 4213.02675806597 -6873.44751100947 4213.02675806597 -6840.99446558975 C4213.02675806597 -6808.54142017004 4172.58786650275 -6781.988928463 4123.16255459217 -6781.988928463 Z " opacity="1" fill="#20984B" fill-opacity="1" /><path d="M4481.01637288104 -6375.70358008983 L5055.03242411379 -6409.09780741516 L5085.65144154773 -5905.19416876467 L4519.85956842239 -5913.56220064789 Z " opacity="1" fill="#20984B" fill-opacity="1" transform="rotate(270 4783.333984375 -6157.14599609375)" /><path d="M4645.24317548802 -6539.35829712465 L4951.48188696521 -6309.26370540977 L4880.9778932687 -6234.02644385019 L4574.7391817915 -6464.12103556505 Z " opacity="1" fill="#1D8642" fill-opacity="1" transform="rotate(270 4763.11059570313 -6386.6923828125)" /><path d="M4676.3004530842 -6508.80118288545 L4863.46944958975 -6676.39836169472 L4919.38388534697 -6625.20779132362 L4733.76839561494 -6457.34252669803 Z " opacity="1" fill="#1D8642" fill-opacity="1" transform="rotate(270 4797.84204101563 -6566.87036132813)" /><path d="M4565.18421366069 -6488.65143317792 L4863.28706679122 -6308.60423712253 L4800.09873885479 -6224.71964107005 L4501.99588572424 -6404.76683712546 Z " opacity="1" fill="#20984B" fill-opacity="1" transform="rotate(270 4682.6416015625 -6356.685546875)" /><path d="M4525.07560166432 -6498.35315675028 L4719.28130338181 -6678.42988229198 L4780.69897396976 -6625.32147027888 L4586.49327225227 -6445.24474473718 Z " opacity="1" fill="#20984B" fill-opacity="1" transform="rotate(270 4652.88720703125 -6561.83715820313)" /><g transform="rotate(34 4384.22924804688 -6648.65161132813)"><path d="M4383.20164170152 -6669.1595651616 L4351.74432055525 -6650.34817150084 L4385.25718467289 -6628.14335282577 L4416.71450581918 -6646.95474648651 Z " opacity="1" fill="#20984B" fill-opacity="1" /></g><g transform="rotate(290 4606.767578125 -6175.59228515625)"><path d="M4622.73890540998 -6606.54385314234 L4465.25007830758 -6170.7812625252 L4590.79650219954 -5744.64081938501 L4748.28532930195 -6180.40341000216 Z " opacity="1" fill="#20984B" fill-opacity="1" /></g><g transform="rotate(270 4732.60180664063 -5694.0625)"><path d="M4541.03832049789 -5528.09190414131 C4541.03832049789 -5714.80893603332 4708.6565430006 -5860.03329417156 4924.16568621838 -5860.03329417156 L4924.16568621838 -5528.09190414131 Z " opacity="1" fill="#20984B" fill-opacity="1" /></g><path d="M4614.36155699767 -5925.03018923648 L5171.95830445517 -5959.9439596956 L5190.3676285418 -5724.20741879674 L4630.11728069808 -5698.05723503311 Z " opacity="1" fill="#20984B" fill-opacity="1" transform="rotate(270 4902.36450195313 -5829.00048828125)" /><g><path d="M4534.41098208464 -6678.76550136908 C4556.624167147 -6700.18934754792 4590.29661991984 -6706.4228725535 4609.23865491318 -6692.61777915923 C4628.18068990654 -6678.81268576501 4625.50429439553 -6649.98900793248 4603.29110933318 -6628.56516175362 C4581.07792427082 -6607.14131557478 4547.40547149797 -6600.9077905692 4528.46343650461 -6614.71288396344 C4509.52140151127 -6628.51797735771 4512.19779702228 -6657.34165519024 4534.41098208464 -6678.76550136908 Z " opacity="1" fill="#20984B" fill-opacity="1" transform="rotate(270 4568.85107421875 -6653.66528320313)" /></g><g><path d="M4672.08144352834 -6601.62563898585 C4656.30602692402 -6615.96701580313 4667.59380795169 -6648.21291297037 4697.16540136762 -6673.28318824639 C4726.73699478357 -6698.35346352241 4763.83909389104 -6707.13165317046 4779.61451049538 -6692.79027635317 C4795.3899270997 -6678.44889953588 4784.10214607204 -6646.20300236865 4754.5305526561 -6621.13272709261 C4724.95895924016 -6596.06245181661 4687.85686013269 -6587.28426216856 4672.08144352834 -6601.62563898585 Z " opacity="1" fill="#1D8642" fill-opacity="1" transform="rotate(270 4725.84790039063 -6647.2080078125)" /></g><path d="M4654.55371429011 -5870.07944152128 L5228.56976552296 -5880.42566936563 L5267.41296106433 -5737.24463506798 L4653.58051323899 -5733.40653732451 Z " opacity="1" fill="#20984B" fill-opacity="1" transform="rotate(270 4960.49682617188 -5806.91625976563)" /><path d="M10023.3131059549 -15579.0097463037" opacity="1" fill="#FFFFFF" fill-opacity="1" transform="rotate(270 0 0)" /><path d="M6474.00421490843 -5140.42118681911 C6221.19386093463 -4889.88910150482 5630.62520062689 -4654.09164843527 5475.92590514473 -4807.37516093433 L6082.74072468121 -5408.78651086487 L6474.00421490843 -5140.42118681911 Z " opacity="1" fill="#DE342E" fill-opacity="1" transform="rotate(270 5974.96508789063 -5083.75146484375)" /><path d="M5546.11040947474 -5027.05041842581 C5293.32192112575 -5277.58250374008 4702.73139519319 -5513.48829969373 4548.05396533585 -5360.13978146432 L5154.86878487232 -4758.70676295687 L5546.11040947474 -5027.05041842581 Z " opacity="1" fill="#DE342E" fill-opacity="1" transform="rotate(270 5047.08227539063 -5083.76293945313)" /><path d="M6900.4151154344 -5999.7484234367 L6900.13086231196 -5999.7484234367 C6899.89034043912 -6001.61192104407 6899.56235606708 -6003.30207003687 6899.12504357101 -6006.87738521388 C6897.04780921472 -6026.29243005398 6882.15731872379 -6057.38683780583 6873.95770942261 -6075.11173365314 C6807.09262877464 -6235.71922512085 6554.41346854966 -6454.78853687721 6029.63847327453 -6454.78853687721 C6029.63847327453 -6454.78853687721 5055.32809767184 -6454.87521118452 5053.644444562 -6454.78853687721 C4708.34249767097 -6449.58807843786 4155.75442764625 -6212.29549356708 4116.19951237739 -6004.03880164913 C4116.13391550298 -6003.8221158808 4116.04645300377 -6003.58376153567 4116.04645300377 -6003.45375007468 C4114.60332176676 -5995.69639956935 4113.68496552503 -5987.96071764086 4113.68496552503 -5980.26837286603 C4113.68496552503 -5972.59769666804 4114.60332176676 -5964.8836833164 4116.04645300377 -5957.10466423424 C4116.04645300377 -5956.8663098891 4116.13391550298 -5956.73629842812 4116.19951237739 -5956.51961265982 C4155.75442764625 -5748.28458931868 4703.7507164623 -5506.70162623543 5049.05266335334 -5501.41449348876 C5050.73631646318 -5501.37115633513 6029.63847327453 -5501.37115633513 6029.63847327453 -5501.37115633513 C6680.64372053814 -5501.37115633513 6897.02594358991 -5821.43770469848 6900.26205606078 -5995.69639956935 C6900.32765293518 -5994.52629642053 6900.4151154344 -5993.65955334729 6900.4151154344 -5994.50462784369 C6900.4151154344 -5995.76140529985 6900.39324980959 -5996.69315410355 6900.32765293518 -5997.55989717677 C6900.34951855999 -5998.29662878904 6900.4151154344 -5999.03336040125 6900.4151154344 -5999.7484234367 Z " opacity="1" fill="#F13934" fill-opacity="1" transform="rotate(270 5507.05004882813 -5978.09912109375)" /><g transform="rotate(270 5507.06890883966 -6019.64444346652)"><rect x="5026.02516317079" y="-6496.35313373756" width="962.087491337741" height="953.417380542081" opacity="1" fill="#B02420" fill-opacity="1" /></g><path d="M5504.88038257976 -5755.07038334865 C5377.30121934597 -5755.07038334865 5272.91826760923 -5860.40256443153 5272.91826760923 -5989.14189686616 C5272.91826760923 -6117.88122930079 5377.30121934597 -6223.21341038367 5504.88038257976 -6223.21341038367 C5632.45954581354 -6223.21341038367 5736.84249755028 -6117.88122930079 5736.84249755028 -5989.14189686616 C5736.84249755028 -5860.40256443153 5632.45954581354 -5755.07038334865 5504.88038257976 -5755.07038334865 Z " opacity="1" fill="#EFA4BF" fill-opacity="1" /><g transform="rotate(270 5260.67419433594 -5979.35302734375)"><path d="M6652.78564033941 -5749.40519462338 C6652.78564033941 -5755.14736748348 6652.26086534414 -5755.58073902007 6651.49556847603 -5761.75628341676 C6649.41833411973 -5781.17132825694 6644.14871854217 -5791.61558228922 6635.949109241 -5809.38381529019 C6569.04029734342 -5969.96963818107 6339.97601190582 -6209.66743508005 5782.00899817955 -6209.66743508005 L4819.92150684181 -6209.66743508005 C4818.17225685755 -6209.66743508005 4782.81554155089 -6208.86569773733 4781.06629156665 -6208.90903489101 C4454.63437888071 -6215.17125359503 3890.74178083278 -5947.80268408346 3868.59190290721 -5756.18745917134 C3868.5263060328 -5755.94910482621 3868.59190290721 -5756.18745917134 3868.59190290721 -5756.18745917134 L6652.32646221855 -5754.62732163955 C6652.41392471776 -5754.62732163955 6652.78564033941 -5747.34667982448 6652.78564033941 -5749.40519462338 Z " opacity="1" fill="#FFFFFF" fill-opacity="0.28999999165535" /></g><g><path d="M5400 -5775 L5984 -5850 L5984 -5700 L5400 -5775 Z " opacity="1" fill="#219849" fill-opacity="1" /></g><ellipse cx="6022" cy="-5775" rx="78" ry="75" opacity="1" fill="#219849" fill-opacity="1" /><ellipse cx="4100" cy="-6450" rx="50" ry="50" opacity="1" stroke="#000000" stroke-opacity="1" stroke-width="1" stroke-linecap="butt" stroke-linejoin="miter" stroke-dasharray="none" fill="#2A84D2" fill-opacity="1" /><path d="M4100 -6500 C4072.5 -6500 4050 -6477.5 4050 -6450 C4050 -6422.5 4072.5 -6400 4100 -6400 C4119.3982367407 -6400 4136.30859520935 -6411.19545222425 4144.58883609824 -6427.44411736505 L4144.58883568378 -6427.44411736505 C4136.66362234468 -6422.81455477616 4126.30090363504 -6420 4115 -6420 C4090.25 -6420 4070 -6433.5 4070 -6450 C4070 -6466.5 4090.25 -6480 4115 -6480 C4126.30090591991 -6480 4136.66362653506 -6477.18544408572 4144.58884049086 -6472.55587982687 L4144.58883752923 -6472.55587982687 C4136.30859715765 -6488.80454648589 4119.39823785817 -6500 4100 -6500 Z " opacity="1" stroke="#000000" stroke-opacity="1" stroke-width="1" stroke-linecap="butt" stroke-linejoin="miter" stroke-dasharray="none" fill="#1B1B1B" fill-opacity="1" /><ellipse cx="4080" cy="-6470" rx="10" ry="10" opacity="1" stroke="#000000" stroke-opacity="1" stroke-width="1" stroke-linecap="butt" stroke-linejoin="miter" stroke-dasharray="none" fill="#FFFFFF" fill-opacity="1" /><rect x="4650" y="-6445" width="300" height="300" opacity="1" fill="#20984B" fill-opacity="1" transform="rotate(357 4800 -6295)" /></g></svg>